<svg width="45" height="45" viewBox="0 0 45 45" fill="none" xmlns="http://www.w3.org/2000/svg">
<path d="M7.3075 2.0047C8.00342 0.768164 9.33074 0 10.7716 0H22.4147C24.5955 0 26.3697 1.77425 26.3697 3.95508V9.22852C26.3697 11.4093 24.5955 13.1836 22.4147 13.1836H14.5045C13.7776 13.1836 13.1861 13.775 13.1861 14.502V24.8584C16.9875 23.8192 20.9946 23.6907 24.8466 24.4743C27.7815 21.6659 31.9383 20.5234 36.0893 21.5613C40.2397 22.5991 43.6842 25.9859 44.6701 30.2015C45.5179 33.8277 44.6913 37.5628 42.4021 40.4489C40.1083 43.3412 36.6993 45 33.0494 45C15.8391 45 3.92573 38.4604 0.731346 36.8628C0.284683 36.6395 0.00255585 36.183 0.00255585 35.6836V29.9644C0.00255585 20.1635 2.52862 10.4952 7.3075 2.0047ZM2.63927 34.8712C6.92227 37.0286 17.7647 42.3633 33.0494 42.3633C35.8895 42.3633 38.5455 41.0683 40.3364 38.8103C42.1224 36.5585 42.7662 33.6395 42.1026 30.8017C41.3571 27.6132 38.6835 24.9277 35.4498 24.1191C32.7948 23.4552 30.133 23.9092 27.9837 25.3279C29.0116 25.6811 30.0203 26.1032 31.0023 26.5941C31.6536 26.9198 31.9175 27.7117 31.5919 28.3629C31.2663 29.0141 30.4744 29.2781 29.8231 28.9525C23.5607 25.8213 16.0833 25.8212 9.82064 28.9525C9.16832 29.2787 8.37695 29.013 8.05193 28.3629C7.7263 27.7117 7.99023 26.9198 8.6415 26.5941C9.26719 26.2812 9.90396 25.9969 10.5494 25.7399V14.502C10.5494 12.3211 12.3237 10.5469 14.5045 10.5469H15.8229V6.5918C15.8229 5.86371 16.4131 5.27344 17.1412 5.27344H19.7779C20.506 5.27344 21.0963 5.86371 21.0963 6.5918C21.0963 7.31988 20.506 7.91016 19.7779 7.91016H18.4596V10.5469H22.4147C23.1416 10.5469 23.733 9.95546 23.733 9.22852V3.95508C23.733 3.22813 23.1416 2.63672 22.4147 2.63672H10.7715C10.2817 2.63672 9.83479 2.89011 9.60514 3.29792C5.04792 11.3945 2.63919 20.6155 2.63919 29.9644V34.8712H2.63927Z" fill="#5E60CE"/>
</svg>
